<svg width="1400" height="780" viewBox="0 0 1400 780" fill="none" xmlns="http://www.w3.org/2000/svg">
  <rect width="1400" height="780" rx="36" fill="#F7FCFA"/>
  <rect x="40" y="36" width="1320" height="708" rx="28" fill="#FFFFFF" stroke="#D7E8E2" stroke-width="2"/>
  <text x="84" y="110" fill="#173436" font-family="Avenir Next, Trebuchet MS, sans-serif" font-size="42" font-weight="700">Babbling Brook Signal Flow</text>
  <text x="84" y="150" fill="#557273" font-family="Avenir Next, Trebuchet MS, sans-serif" font-size="22">Simplified patch: one brown-noise audio source, one slow brown-noise modulator, and a narrow resonant high-pass band.</text>

  <rect x="88" y="280" width="220" height="98" rx="22" fill="#E7F5F0" stroke="#8BC4B4" stroke-width="2"/>
  <text x="198" y="340" text-anchor="middle" fill="#0F5D58" font-family="Avenir Next, Trebuchet MS, sans-serif" font-size="30" font-weight="700">Brown Noise</text>

  <rect x="402" y="266" width="218" height="126" rx="22" fill="#F5FAFF" stroke="#A9C8E8" stroke-width="2"/>
  <text x="511" y="320" text-anchor="middle" fill="#17466D" font-family="Avenir Next, Trebuchet MS, sans-serif" font-size="30" font-weight="700">LPF</text>
  <text x="511" y="358" text-anchor="middle" fill="#4A708E" font-family="Avenir Next, Trebuchet MS, sans-serif" font-size="24">400 Hz</text>

  <rect x="716" y="258" width="264" height="142" rx="22" fill="#FFF8F0" stroke="#E7C58C" stroke-width="2"/>
  <text x="848" y="314" text-anchor="middle" fill="#845B13" font-family="Avenir Next, Trebuchet MS, sans-serif" font-size="30" font-weight="700">Resonant HPF</text>
  <text x="848" y="350" text-anchor="middle" fill="#A77A24" font-family="Avenir Next, Trebuchet MS, sans-serif" font-size="24">cutoff = 500 + drift * 400</text>
  <text x="848" y="380" text-anchor="middle" fill="#A77A24" font-family="Avenir Next, Trebuchet MS, sans-serif" font-size="24">narrow Q band</text>

  <rect x="1046" y="286" width="166" height="86" rx="18" fill="#EEF0FF" stroke="#B7BEEA" stroke-width="2"/>
  <text x="1129" y="340" text-anchor="middle" fill="#414F9F" font-family="Avenir Next, Trebuchet MS, sans-serif" font-size="28" font-weight="700">Output Gain</text>

  <rect x="88" y="532" width="220" height="98" rx="22" fill="#E7F5F0" stroke="#8BC4B4" stroke-width="2"/>
  <text x="198" y="592" text-anchor="middle" fill="#0F5D58" font-family="Avenir Next, Trebuchet MS, sans-serif" font-size="30" font-weight="700">Brown Noise</text>

  <rect x="402" y="518" width="218" height="126" rx="22" fill="#F1FFFA" stroke="#9FDBBD" stroke-width="2"/>
  <text x="511" y="572" text-anchor="middle" fill="#0C6E5A" font-family="Avenir Next, Trebuchet MS, sans-serif" font-size="30" font-weight="700">LPF</text>
  <text x="511" y="610" text-anchor="middle" fill="#3C886D" font-family="Avenir Next, Trebuchet MS, sans-serif" font-size="24">14 Hz</text>

  <rect x="716" y="518" width="264" height="126" rx="22" fill="#F6F1FF" stroke="#BFA8E8" stroke-width="2"/>
  <text x="848" y="570" text-anchor="middle" fill="#5B2C93" font-family="Avenir Next, Trebuchet MS, sans-serif" font-size="30" font-weight="700">Scale + Offset</text>
  <text x="848" y="608" text-anchor="middle" fill="#7C4DB8" font-family="Avenir Next, Trebuchet MS, sans-serif" font-size="24">drift * 400 + 500</text>

  <rect x="1242" y="270" width="110" height="118" rx="22" fill="#FFF4F0" stroke="#E8B5A8" stroke-width="2"/>
  <text x="1297" y="320" text-anchor="middle" fill="#9A4431" font-family="Avenir Next, Trebuchet MS, sans-serif" font-size="24" font-weight="700">Compressor</text>
  <text x="1297" y="354" text-anchor="middle" fill="#C05D44" font-family="Avenir Next, Trebuchet MS, sans-serif" font-size="20">safety</text>
  <text x="1297" y="380" text-anchor="middle" fill="#C05D44" font-family="Avenir Next, Trebuchet MS, sans-serif" font-size="20">only</text>

  <path d="M308 329H402" stroke="#0F5D58" stroke-width="6" stroke-linecap="round"/>
  <path d="M620 329H716" stroke="#17466D" stroke-width="6" stroke-linecap="round"/>
  <path d="M980 329H1046" stroke="#845B13" stroke-width="6" stroke-linecap="round"/>
  <path d="M1212 329H1242" stroke="#414F9F" stroke-width="6" stroke-linecap="round"/>
  <path d="M1352 329H1308" stroke="#9A4431" stroke-width="6" stroke-linecap="round"/>
  <text x="1278" y="248" fill="#9A4431" font-family="Avenir Next, Trebuchet MS, sans-serif" font-size="20">to speakers</text>

  <path d="M308 581H402" stroke="#0F5D58" stroke-width="6" stroke-linecap="round"/>
  <path d="M620 581H716" stroke="#0C6E5A" stroke-width="6" stroke-linecap="round"/>
  <path d="M980 581C1045 581 1030 400 1030 330H980" stroke="#6B3CAB" stroke-width="5" stroke-linecap="round" stroke-linejoin="round"/>

  <polygon points="391,329 403,321 403,337" fill="#0F5D58"/>
  <polygon points="705,329 717,321 717,337" fill="#17466D"/>
  <polygon points="1035,329 1047,321 1047,337" fill="#845B13"/>
  <polygon points="1231,329 1243,321 1243,337" fill="#414F9F"/>
  <polygon points="391,581 403,573 403,589" fill="#0F5D58"/>
  <polygon points="705,581 717,573 717,589" fill="#0C6E5A"/>
  <polygon points="1019,330 1031,322 1031,338" fill="#6B3CAB"/>
</svg>
